<svg width="297" height="110" viewBox="0 0 297 110" fill="none" xmlns="http://www.w3.org/2000/svg">
<path d="M198.62 41.1025C195.972 41.1025 193.433 41.6146 191.004 42.6385C188.575 43.6426 186.404 45.09 184.493 46.9802C182.581 48.8704 181.068 51.1245 179.953 53.7432C178.858 56.3619 178.311 59.2855 178.311 62.5146C178.311 66.5312 179.117 69.8593 180.73 72.4977C182.342 75.1164 184.463 77.0751 187.091 78.3746C189.719 79.6545 192.547 80.2944 195.573 80.2944C198.321 80.2944 200.989 79.6545 203.577 78.3746C206.166 77.0948 208.227 75.3326 209.76 73.088L214.031 79.2018H223.827V42.4909H214.031L209.76 47.0093C208.545 45.1388 206.912 43.6921 204.861 42.6682C202.83 41.6247 200.75 41.1025 198.62 41.1025ZM197.5 51.5346C197.541 51.5452 197.623 51.6023 197.769 51.7216C198.713 52.489 199.742 53.0974 201.515 53.9365C202.918 54.6002 203.234 54.7835 203.68 55.1918C204.307 55.7659 204.869 56.8294 204.88 57.4628C204.884 57.7335 204.884 57.731 204.969 57.7454C205.012 57.7527 205.313 57.8762 205.638 58.0198C206.948 58.5993 207.636 59.0357 207.943 59.4795L208.04 59.6208L206.811 59.6112C206.135 59.6058 205.355 59.5996 205.077 59.598L204.572 59.5952L204.357 59.7843C204.239 59.8884 204.074 60.0692 203.99 60.1862C203.848 60.3835 203.834 60.419 203.792 60.6774C203.753 60.9192 203.754 60.9975 203.809 61.2759C203.953 62.0145 203.989 62.2339 204.012 62.5326C204.056 63.098 204.035 63.5017 203.929 64.1164C203.514 66.5163 202.034 68.443 199.87 69.4024C198.377 69.9082 196.964 70.0242 195.388 69.6227C191.026 68.9571 190.392 69.5607 189.631 69.8506C189.627 69.8452 189.77 69.5312 189.951 69.1536C190.131 68.7761 190.465 68.0696 190.692 67.5838C192.077 64.6251 192.884 63.1426 193.758 61.9493C194.487 60.9535 195.066 60.3318 195.97 59.5744C196.262 59.3298 196.298 59.287 196.398 59.0742C196.457 58.9463 196.588 58.5844 196.688 58.2692C197.059 57.0972 197.327 56.516 197.817 55.814L198.06 55.4655L197.939 55.2466C197.742 54.8926 197.495 54.3005 197.379 53.9053C197.193 53.2718 197.144 52.7384 197.227 52.2579C197.269 52.0167 197.405 51.6178 197.472 51.5388C197.478 51.5333 197.487 51.5312 197.5 51.5346Z" fill="white"/>
<path d="M275.287 80.2944C272.619 80.2944 270.021 79.8416 267.492 78.9359C264.963 78.0104 262.683 76.6912 260.652 74.9783C258.641 73.2456 257.039 71.1782 255.844 68.7761C254.669 66.3543 254.082 63.6568 254.082 60.6837C254.082 57.75 254.639 55.0821 255.754 52.6799C256.869 50.2778 258.402 48.2203 260.354 46.5073C262.305 44.7746 264.555 43.4456 267.104 42.5202C269.672 41.5751 272.4 41.1025 275.287 41.1025C279.349 41.1025 283.022 41.9 286.308 43.4948C289.593 45.07 292.191 47.3343 294.103 50.2877C296.034 53.2214 297 56.7261 297 60.8018C297 63.7946 296.413 66.4921 295.238 68.8942C294.063 71.2963 292.46 73.344 290.429 75.0373C288.398 76.7306 286.079 78.0301 283.47 78.9359C280.882 79.8416 278.154 80.2944 275.287 80.2944ZM273.405 68.3626C274.281 68.3626 275.257 67.959 276.332 67.1517C277.407 66.3247 278.443 65.2812 279.438 64.0211C280.434 62.7413 281.25 61.4024 281.887 60.0044C282.545 58.6065 282.873 57.3267 282.873 56.165C282.873 55.279 282.634 54.4717 282.156 53.7432C281.698 53.0147 280.902 52.6504 279.767 52.6504C278.732 52.6504 277.636 53.0442 276.482 53.8318C275.327 54.5997 274.242 55.6137 273.226 56.8738C272.231 58.1142 271.414 59.4433 270.777 60.8609C270.16 62.2589 269.851 63.5978 269.851 64.8776C269.851 65.7439 270.11 66.5413 270.628 67.2698C271.145 67.9984 272.071 68.3626 273.405 68.3626Z" fill="white"/>
<path d="M248.258 79.1999H230.965V42.4889H248.258V79.1999Z" fill="white"/>
<path d="M240.493 25.4779C243.32 25.4779 245.401 26.108 246.735 27.3681C248.089 28.6282 248.766 30.0754 248.766 31.7096C248.766 32.9304 248.377 34.1413 247.601 35.3423C246.844 36.5237 245.729 37.5082 244.256 38.2957C242.782 39.0636 240.98 39.4476 238.85 39.4476C235.784 39.4476 233.623 38.8372 232.369 37.6165C231.134 36.376 230.517 34.9781 230.517 33.4226C230.517 32.1625 230.886 30.9319 231.622 29.7308C232.359 28.5101 233.464 27.4961 234.937 26.6888C236.431 25.8815 238.282 25.4779 240.493 25.4779Z" fill="white"/>
<path d="M172.636 78.6107C172.636 78.6107 172.068 78.6993 170.933 78.8765C169.818 79.0537 168.395 79.2506 166.662 79.4671C164.93 79.7034 163.118 79.9102 161.227 80.0874C159.335 80.2646 157.613 80.3532 156.06 80.3532C151.799 80.3532 147.847 79.7723 144.203 78.6107C140.579 77.449 137.413 75.7754 134.705 73.5898C132.017 71.4043 129.927 68.7758 128.433 65.7042C126.94 62.6326 126.193 59.187 126.193 55.3672C126.193 51.5475 127 48.1215 128.612 45.0893C130.225 42.0375 132.485 39.4483 135.392 37.3218C138.299 35.1757 141.714 33.5415 145.636 32.4192C149.579 31.2772 153.87 30.7062 158.509 30.7062C161.137 30.7062 163.317 30.8538 165.05 31.1492C166.782 31.4248 168.076 31.7103 168.932 32.0057C169.808 32.301 170.266 32.4487 170.306 32.4487V46.7137C167.379 45.8277 164.671 45.3847 162.182 45.3847C158.997 45.3847 156.349 45.9754 154.238 47.1567C152.147 48.3184 150.584 49.7951 149.549 51.5869C148.514 53.3589 147.996 55.1605 147.996 56.9916C147.996 59.1181 148.583 60.8606 149.758 62.2192C150.953 63.5777 152.585 64.257 154.656 64.257C155.114 64.257 155.572 64.2275 156.03 64.1684C156.488 64.0897 156.886 63.9814 157.225 63.8435C157.264 63.115 157.284 62.1798 157.284 61.0378C157.284 59.8761 157.284 58.4486 157.284 56.7553C161.107 56.7553 164.064 56.7553 166.155 56.7553C168.265 56.7357 169.779 56.7258 170.694 56.7258C171.61 56.7258 172.158 56.7258 172.337 56.7258C172.536 56.7061 172.636 56.6963 172.636 56.6963V78.6107Z" fill="white"/>
<path d="M33.8802 16.7233C32.9932 17.3835 30.7481 19.7267 31.3081 19.0176C29.0817 20.9103 26.9829 23.375 26.9008 23.7005C24.613 26.571 22.868 29.6626 21.3918 32.9703C19.5774 37.4492 18.2878 43.3452 18.4896 48.6029C18.6152 51.289 19.1457 62.1972 20.7908 54.4133C25.1248 43.0343 31.3819 32.451 39.3016 23.2208C39.4678 23.4999 33.8802 16.7233 33.8802 16.7233ZM90.8415 24.5376C87.3336 24.9284 83.1355 28.5335 82.6926 32.6911C81.3745 36.2504 83.4388 38.6641 84.1116 41.9652C87.3763 53.7232 82.2523 66.8723 73.0711 74.3729C72.2786 75.3816 69.501 76.9823 68.0993 77.9176C66.4452 79.1429 59.712 81.556 60.4058 81.2232C57.3275 82.2548 54.3508 81.097 51.1848 82.9267C47.7158 85.4542 45.4355 88.5745 51.3554 88.5664C69.3355 92.5544 89.2292 81.9488 96.0065 64.8622C101.655 52.0166 99.5874 36.3234 91.2043 25.1293L90.8415 24.5376ZM52.473 31.4407C49.1102 31.71 48.1687 31.8243 45.0306 33.1048C43.1879 33.9398 41.0556 34.9184 39.6221 36.3274C36.4796 38.4202 34.9211 40.7341 32.7682 44.2192C30.9478 46.6839 28.7495 50.8065 33.8414 48.8516C44.8463 47.3236 55.8818 46.0543 66.8668 44.4149C69.796 41.6427 63.4235 34.7657 59.9587 33.206C57.3942 32.0226 55.5284 31.699 52.473 31.4407ZM82.6204 37.1671C82.499 37.4968 82.8405 37.4636 82.6204 37.1671V37.1671ZM83.8885 40.7368C83.6977 41.0255 84.2326 40.9708 83.8885 40.7368V40.7368ZM84.189 41.739C83.9982 42.0275 84.5329 41.9727 84.189 41.739V41.739ZM85.1244 49.0925C85.0033 49.4232 85.3449 49.3883 85.1244 49.0925V49.0925ZM85.1215 50.0917C84.9278 50.5873 85.4662 50.342 85.1215 50.0917V50.0917ZM84.5718 55.3984C84.1547 55.7983 84.8081 56.164 84.5718 55.3984V55.3984ZM79.4872 67.4589C78.8322 67.998 79.0408 68.3149 79.4872 67.4589V67.4589ZM77.8417 69.6221C76.796 69.7191 78.0665 70.7162 77.8417 69.6221V69.6221ZM74.7854 72.8052C74.4412 73.039 74.9763 73.0939 74.7854 72.8052V72.8052ZM71.0852 76.012C70.6176 76.1771 71.258 76.3597 71.0852 76.012V76.012ZM68.5506 77.6472C68.594 77.8399 68.9895 77.5038 68.5506 77.6472V77.6472ZM64.1432 79.8519C64.1868 80.0446 64.5824 79.7085 64.1432 79.8519V79.8519ZM52.5446 82.0825C52.8625 82.3369 54.8004 82.1236 52.5446 82.0825V82.0825Z" fill="white"/>
<path d="M3.6125 109.614C2.49745 109.266 0.95814 108.303 0.95814 107.953C0.95814 107.905 0.832678 107.677 0.679334 107.447C-0.0216376 106.394 -0.196318 104.883 0.230987 103.571C0.563256 102.55 0.71486 102.171 0.841163 102.044C0.905502 101.98 0.958146 101.88 0.958154 101.822C0.958176 101.65 1.92008 100.2 2.84704 98.975C3.32314 98.3458 3.79865 97.7132 3.90373 97.5692C4.78005 96.3681 5.89058 94.9068 6.27326 94.4512C6.52791 94.1481 6.88982 93.6923 7.0775 93.4384C7.26519 93.1845 8.00472 92.2202 8.7209 91.2957C9.43708 90.3712 10.1583 89.4235 10.3235 89.1897C10.4888 88.9559 10.7508 88.6124 10.9058 88.4262C11.185 88.0909 12.4213 86.4416 13.0575 85.556C13.239 85.3033 13.5863 84.8451 13.8292 84.5377C14.8059 83.3023 15.4824 82.422 17.0309 80.3712C19.6463 76.9075 20.7145 75.4844 21.1304 74.9096C21.6777 74.1531 22.0543 73.6621 23.8958 71.3038C26.2227 68.324 27.038 67.2428 27.2599 66.8424C27.3515 66.6771 27.5787 66.3538 27.7646 66.1241C28.2583 65.5141 28.2228 65.3868 27.5769 65.4513C27.2877 65.4801 26.6904 65.5682 26.2497 65.647C25.809 65.7258 25.0427 65.8337 24.5469 65.8868C24.0511 65.9399 23.4366 66.0773 23.1687 66.0843C15.7264 66.2783 18.6771 60.3161 19.6339 57.6033C19.7967 57.1416 19.8699 56.6307 19.9371 56.5204C20.0043 56.4102 20.1167 56.1396 20.187 55.9191C20.2573 55.6987 20.4219 55.2802 20.5528 54.9892C20.6836 54.6982 20.7907 54.439 20.7907 54.4132C20.7907 54.3875 20.9219 54.0844 21.0822 53.7398C21.2425 53.3951 21.5175 52.7524 21.6933 52.3115C22.0671 51.3739 22.9524 49.2379 23.147 48.804C23.2212 48.6386 23.4015 48.2328 23.5476 47.9021C24.1198 46.6071 25.6799 43.4263 25.806 43.2973C25.8572 43.2449 25.8991 43.1419 25.8991 43.0683C25.8991 42.9947 26.0959 42.5866 26.3364 42.1614C26.5769 41.7361 26.9534 41.05 27.173 40.6366C27.3926 40.2232 27.6988 39.6595 27.8535 39.3839C28.0081 39.1083 28.2289 38.7025 28.3441 38.482C28.4592 38.2615 28.6336 37.9684 28.7314 37.8306C29.0574 37.3717 30.4065 35.289 30.4065 35.2447C30.4065 35.0826 31.7023 33.0667 32.1549 32.5247C32.3502 32.2908 32.51 32.067 32.51 32.0272C32.51 31.9721 33.8739 30.1079 34.3862 29.4628C34.4299 29.4077 34.7469 29.0135 35.0905 28.5869C35.4341 28.1603 35.7153 27.7858 35.7153 27.7547C35.7153 27.7236 35.9883 27.3736 36.3221 26.977C36.6559 26.5804 37.0232 26.1432 37.1383 26.0054C37.2534 25.8676 37.5573 25.5068 37.8136 25.2037C38.07 24.9005 38.4111 24.4557 38.5716 24.2152C38.7321 23.9747 38.9213 23.7557 38.9921 23.7285C39.0629 23.7013 39.1219 23.6275 39.1231 23.5645C39.1243 23.5015 39.2046 23.3468 39.3016 23.2208L39.4778 22.9916L39.9755 23.2555C40.2491 23.4006 40.5182 23.5558 40.5732 23.6003C40.6283 23.6448 40.8762 23.7897 41.1241 23.9224C41.3721 24.0551 41.665 24.2136 41.7752 24.2747C42.2494 24.5378 42.8424 24.8028 42.9567 24.8028C43.0247 24.8028 43.2485 24.893 43.4541 25.0033C43.6597 25.1135 43.938 25.2037 44.0727 25.2037C44.2074 25.2037 44.3436 25.2458 44.3754 25.2973C44.4073 25.3488 44.6781 25.4622 44.9772 25.5492C45.2764 25.6362 45.5498 25.7537 45.5847 25.8103C45.6197 25.8669 45.4698 26.0805 45.2516 26.285C44.0646 27.3976 41.843 29.9461 40.7235 31.4795C40.4756 31.8191 40.0586 32.3728 39.797 32.7101C39.5353 33.0473 39.3212 33.3476 39.3212 33.3775C39.3212 33.4073 39.0784 33.8014 38.7816 34.2532C38.4848 34.705 38.1523 35.2326 38.0426 35.4255C37.9329 35.6184 37.6773 36.067 37.4746 36.4224C37.2719 36.7779 36.9571 37.3867 36.7751 37.7753C35.945 39.5485 35.7426 39.9099 35.3362 40.3438C35.1595 40.5324 35.0148 40.7656 35.0146 40.8621C35.0146 40.9585 34.9702 41.0374 34.9165 41.0374C34.8628 41.0374 34.7451 41.184 34.655 41.3631C34.5648 41.5423 34.4048 41.779 34.2995 41.8892C34.0143 42.1877 32.8497 43.9593 32.7678 44.2192C32.7288 44.3432 32.66 44.4447 32.615 44.4447C32.5701 44.4447 32.3851 44.7491 32.2039 45.1211C32.0228 45.4932 31.8165 45.8668 31.7455 45.9514C31.5376 46.1992 31.0469 47.1668 30.9088 47.6014C30.8387 47.8219 30.7131 48.1376 30.6297 48.3029C30.1061 49.3411 30.0279 49.2993 32.0092 49.0404C32.4223 48.9864 33.2467 48.9015 33.841 48.8516C34.4353 48.8018 34.9683 48.7321 35.0254 48.6968C35.1228 48.6366 36.0283 48.5218 38.5199 48.254C39.0983 48.1918 39.9107 48.0759 40.3251 47.9964C40.7396 47.917 41.303 47.8503 41.5772 47.8484C41.8514 47.8464 42.3462 47.7795 42.6767 47.6996C43.0072 47.6198 43.5256 47.5543 43.8286 47.5542C44.1316 47.5542 44.695 47.4885 45.0807 47.4086C46.1328 47.1906 47.8328 46.9456 48.2859 46.9468C48.5063 46.9476 48.9078 46.8807 49.1783 46.7986C49.4487 46.7165 49.8827 46.6494 50.1428 46.6494C50.4028 46.6494 51.1281 46.5597 51.7545 46.45C52.3809 46.3403 53.115 46.2501 53.3857 46.2496C53.6564 46.2488 54.2649 46.1826 54.7379 46.1021C56.4674 45.8076 57.7434 45.6472 58.3661 45.6461C58.7167 45.6453 59.2514 45.5783 59.5544 45.4969C59.8574 45.4156 60.3307 45.3482 60.6062 45.3472C60.8816 45.3462 61.3774 45.2974 61.708 45.2387C62.0385 45.18 62.7597 45.0706 63.3106 44.9957C65.3798 44.7142 65.94 44.6227 66.8665 44.415C67.3898 44.2976 67.8518 44.1548 67.8931 44.0977C67.9925 43.9602 68.1371 44.1826 68.2816 44.6952C68.4119 45.1573 68.3311 48.459 68.1676 49.3552C67.9458 50.5713 67.7837 51.3241 67.6821 51.61C67.6234 51.7753 67.5044 52.1586 67.4178 52.4618C67.2595 53.0155 67.1741 53.2506 66.7638 54.2624C66.0945 55.9128 65.2832 57.3517 63.7389 59.627C62.6686 61.2039 62.4911 61.436 61.1741 62.9802C60.3163 63.9861 57.5561 66.9215 57.2006 67.206C57.1455 67.2501 56.8294 67.5316 56.4981 67.8316C55.6209 68.6259 53.7633 70.0133 53.1439 70.3367C53.0062 70.4086 52.7132 70.5711 52.4928 70.6978C52.2725 70.8246 51.8443 71.0618 51.5413 71.225C50.556 71.7559 49.9796 72.183 49.5861 72.674C49.3737 72.939 48.9943 73.3853 48.7429 73.6656C48.4916 73.946 48.1732 74.3292 48.0355 74.5172C47.8284 74.7999 47.0265 75.7277 46.8302 75.9117C46.8008 75.9393 46.2407 76.5932 45.5856 77.3648C44.9305 78.1365 44.3442 78.8129 44.2827 78.868C44.2212 78.9232 43.7446 79.4373 43.2235 80.0106C41.8668 81.5031 41.9247 81.441 40.2146 83.2395C38.8527 84.6717 37.0583 86.6116 35.9198 87.8824C35.5312 88.3162 33.3669 90.6682 32.5495 91.5451C32.2669 91.8482 31.8187 92.3443 31.5535 92.6474C30.7588 93.5558 26.9103 97.5416 25.799 98.6072C24.2902 100.054 22.8333 101.4 22.3934 101.754C22.1455 101.954 21.7173 102.327 21.4418 102.583C20.6656 103.306 18.1123 105.174 17.9013 105.174C17.847 105.174 17.7875 105.209 17.7691 105.252C17.7507 105.295 17.3322 105.594 16.839 105.917C14.8918 107.193 11.5058 108.757 9.62238 109.251C9.18166 109.367 8.61823 109.518 8.37032 109.588C7.65312 109.791 4.23738 109.809 3.6125 109.614ZM10.691 100.88C10.9483 100.838 11.2187 100.755 11.292 100.697C11.3654 100.639 11.538 100.566 11.6758 100.535C12.0857 100.442 12.9916 100.098 13.5533 99.8212C13.8423 99.6787 14.0999 99.5621 14.1257 99.5621C14.1516 99.5621 14.5069 99.3592 14.9152 99.1112C15.3235 98.8631 15.7013 98.6602 15.7546 98.6602C15.808 98.6602 15.9332 98.57 16.0329 98.4598C16.1326 98.3496 16.2525 98.2594 16.2993 98.2594C16.5345 98.2594 18.8174 96.4057 20.5904 94.7752C22.5475 92.9753 26.2124 89.0626 26.9278 88.0092C27.2263 87.5696 27.1733 87.337 26.8179 87.5272C26.7055 87.5875 26.5175 87.6367 26.4003 87.6367C26.2831 87.6367 25.9759 87.6993 25.7176 87.7759C25.1809 87.935 24.3235 88.0841 22.7439 88.2933C22.1379 88.3735 21.4393 88.4822 21.1914 88.5347C20.9435 88.5872 20.2821 88.6321 19.7217 88.6345C18.713 88.6388 18.6995 88.6421 18.3847 88.957C18.2098 89.132 17.9599 89.4364 17.8292 89.6334C17.3826 90.3073 16.2723 91.7757 15.1334 93.1986C13.9979 94.6173 13.6777 95.0207 13.0094 95.8743C12.634 96.3539 12.1015 97.046 11.826 97.4123C11.5505 97.7786 11.1336 98.3213 10.8995 98.6184C10.6653 98.9154 10.4725 99.1929 10.471 99.235C10.4695 99.2771 10.3342 99.4887 10.1705 99.7052C10.0068 99.9218 9.87279 100.153 9.87279 100.219C9.87279 100.285 9.80518 100.395 9.72254 100.464C9.63991 100.533 9.5723 100.701 9.5723 100.838C9.5723 101.067 9.60022 101.082 9.89783 101.023C10.0769 100.987 10.4338 100.923 10.691 100.88ZM27.1512 81.1749C27.647 81.0956 28.3585 81.0034 28.7324 80.9699C29.1063 80.9365 29.5668 80.8445 29.7559 80.7655C29.9449 80.6864 30.2392 80.6218 30.4099 80.6218C30.5806 80.6218 30.8187 80.5688 30.939 80.504C31.0593 80.4392 31.3155 80.3526 31.5083 80.3114C32.3967 80.1218 34.0884 79.3546 35.5001 78.5011C35.8501 78.2895 36.1576 78.1164 36.1835 78.1164C36.256 78.1164 37.598 77.0562 38.2542 76.4804C38.9926 75.8326 40.0698 74.6231 39.9844 74.5376C39.8837 74.4369 38.9418 74.4979 38.1693 74.6553C37.0742 74.8784 36.2347 75.0118 35.3647 75.1011C34.924 75.1464 34.2478 75.2339 33.8622 75.2955C33.4766 75.3572 32.53 75.4572 31.7587 75.5178C28.0904 75.8059 28.3948 75.7554 28.0816 76.1281C27.9268 76.3122 27.4757 76.9139 27.079 77.4651C26.6823 78.0162 26.3109 78.5251 26.2537 78.5959C26.0597 78.8357 25.9502 78.9671 25.4418 79.5695C24.8939 80.2188 24.2965 81.0796 24.2965 81.2197C24.2965 81.2675 24.3415 81.3216 24.3965 81.34C24.613 81.4123 26.2979 81.3113 27.1512 81.1749ZM36.3663 69.2465C37.0274 69.1667 37.8235 69.1005 38.1354 69.0993C38.4474 69.0982 39.0559 69.0296 39.4877 68.9469C39.9195 68.8642 40.4917 68.7966 40.7592 68.7966C41.649 68.7966 44.2019 68.1684 45.5063 67.6285C45.6854 67.5544 45.9784 67.434 46.1574 67.3609C46.709 67.1356 48.5773 66.1729 48.7445 66.0277C48.8315 65.9522 48.9596 65.8904 49.0292 65.8904C49.0988 65.8904 49.2755 65.7977 49.422 65.6843C49.5684 65.571 49.8319 65.3793 50.0075 65.2584C51.0127 64.5663 51.5712 64.1473 52.0528 63.7239C52.8023 63.065 54.8115 61.0338 55.3123 60.4288C56.3583 59.1649 57.0484 58.2582 57.5626 57.4725C59.0605 55.1832 59.1855 54.9686 60.0145 53.2635C60.3226 52.6296 60.666 51.9376 60.7775 51.7256C60.953 51.3921 60.9612 51.3209 60.8378 51.1974C60.7149 51.0746 60.6541 51.0743 60.4002 51.1956C60.238 51.273 59.6546 51.3644 59.1037 51.3986C58.5528 51.4329 57.8541 51.5277 57.5511 51.6094C57.2481 51.6911 56.6847 51.7616 56.2991 51.7662C55.9134 51.7707 55.5161 51.8067 55.4162 51.8461C55.304 51.8904 55.1358 52.204 54.9767 52.6658C54.7632 53.2851 54.325 54.1949 53.6026 55.5183C53.416 55.8601 52.5689 57.0944 52.1239 57.6729C51.6277 58.318 48.8748 61.0802 48.7282 61.0802C48.6731 61.0802 48.5736 61.1275 48.5071 61.1854C47.6519 61.9294 44.6481 63.5855 44.1539 63.5855C44.0436 63.5855 43.8972 63.6532 43.8286 63.7358C43.76 63.8185 43.6178 63.8862 43.5126 63.8862C43.4074 63.8862 43.1559 63.9553 42.9538 64.0398C42.7516 64.1243 42.3931 64.213 42.1572 64.2369C41.9212 64.2608 41.5944 64.3495 41.4311 64.434C41.2677 64.5185 40.9628 64.5876 40.7535 64.5876C40.5441 64.5876 40.0573 64.6545 39.6717 64.7362C39.2313 64.8296 38.4051 64.8855 37.4498 64.8866L35.929 64.8883L35.5533 65.347C35.3467 65.5992 34.9413 66.1742 34.6524 66.6247C34.3636 67.0752 34.0901 67.4889 34.0448 67.5441C33.7525 67.9 33.0108 69.1211 33.0108 69.2464C33.0108 69.3724 33.1921 69.3974 34.0876 69.3948C34.6798 69.393 35.7052 69.3263 36.3663 69.2465ZM27.3014 60.2771C27.4942 60.2307 28.1478 60.1635 28.7538 60.1278C29.3598 60.0922 30.1805 59.9987 30.5776 59.9202C30.9747 59.8416 31.614 59.7774 31.9984 59.7774C32.3828 59.7774 32.8182 59.7314 32.966 59.6751C33.1139 59.6189 33.7366 59.5293 34.3498 59.476C34.9631 59.4227 35.6451 59.3345 35.8655 59.28C36.0859 59.2255 36.5366 59.1787 36.8671 59.176C37.1977 59.1734 37.6589 59.1271 37.8921 59.0733C38.1253 59.0195 38.6437 58.9302 39.044 58.875C40.3998 58.688 41.6102 58.3901 42.9141 57.9227C44.9345 57.1984 46.8573 55.4246 48.0489 53.1856C48.2261 52.8525 48.0496 52.7116 47.619 52.8431C47.4349 52.8994 46.9323 52.9741 46.5021 53.009C46.072 53.0439 45.5987 53.1193 45.4504 53.1765C45.3021 53.2337 44.7751 53.3189 44.2793 53.3658C43.7835 53.4127 43.1299 53.5012 42.8269 53.5624C41.4936 53.8321 41.1305 53.8933 40.423 53.9672C40.0098 54.0104 39.5449 54.0952 39.3898 54.1557C39.2347 54.2161 38.9032 54.2656 38.653 54.2656C38.4029 54.2656 37.9311 54.3349 37.6046 54.4195C37.2781 54.5042 36.618 54.6152 36.1377 54.6663C35.6575 54.7174 35.0617 54.804 34.8138 54.8588C34.5659 54.9136 34.0926 54.9603 33.762 54.9628C33.4314 54.9652 32.8455 55.034 32.4599 55.1157C32.0743 55.1974 31.4883 55.2667 31.1578 55.2696C30.8272 55.2725 30.2863 55.3402 29.9558 55.4201C29.6252 55.4999 28.9942 55.5662 28.5535 55.5673C27.5044 55.57 27.405 55.6584 26.5238 57.3722C26.1412 58.1163 25.687 58.9628 25.5145 59.2533C25.1633 59.8445 25.0446 60.2114 25.1494 60.381C25.2252 60.5038 26.6444 60.4352 27.3014 60.2771ZM82.1582 36.8619C82.1215 36.8251 82.0888 36.7011 82.0856 36.5863C82.0823 36.4715 81.9809 36.1896 81.8602 35.96C81.5906 35.4472 80.5223 33.2819 80.3357 32.87C80.2607 32.7047 80.0326 32.0536 79.8287 31.4233C79.4613 30.2876 79.458 30.2621 79.4611 28.6173C79.4639 27.1151 79.4901 26.867 79.7373 26.0054C79.8875 25.4818 80.067 24.8021 80.1363 24.4951C80.2056 24.188 80.307 23.8498 80.3618 23.7435C80.7383 23.012 80.6788 19.7974 80.2763 19.1289C80.1728 18.9571 80.0867 18.7091 80.085 18.5778C80.0833 18.4465 80.0156 18.2515 79.9347 18.1445C79.8539 18.0376 79.7877 17.8926 79.7877 17.8224C79.7877 17.7522 79.6564 17.5021 79.4959 17.2667C79.3355 17.0312 79.2214 16.8107 79.2424 16.7766C79.2635 16.7426 79.1694 16.6101 79.0334 16.4822C78.8973 16.3544 78.786 16.1983 78.786 16.1355C78.786 16.0727 78.5167 15.7011 78.1874 15.3097C77.58 14.5877 76.4965 13.7524 75.4806 13.2228C75.1776 13.0649 74.8101 12.8549 74.6638 12.7562C74.5176 12.6575 74.2922 12.5752 74.163 12.5732C74.0338 12.5713 73.8154 12.5052 73.6776 12.4265C73.5399 12.3477 73.3371 12.2814 73.2269 12.2791C73.1167 12.2768 72.9136 12.2159 72.7754 12.1438C72.6373 12.0717 71.8523 11.9512 71.0309 11.876C69.7115 11.7553 69.3733 11.7582 68.1269 11.9016C66.7634 12.0585 66.4476 12.1183 65.2638 12.4434C64.0459 12.778 62.0829 13.7905 58.7418 15.8075C56.419 17.2097 53.4152 18.508 51.992 18.7248C51.7716 18.7584 51.3885 18.8299 51.1406 18.8838C50.5498 19.0122 48.6049 19.0129 48.0504 18.885C47.8107 18.8297 47.3599 18.7455 47.0488 18.698C46.7376 18.6504 46.3252 18.5551 46.1324 18.4861C44.6472 17.955 43.4474 17.3677 42.8662 16.8872C42.5987 16.6661 42.331 16.4851 42.2713 16.4851C42.1134 16.4851 40.1225 14.3915 40.1225 14.2254C40.1225 14.1905 39.9647 13.9776 39.7719 13.7522C39.5791 13.5268 39.4213 13.2884 39.4213 13.2224C39.4213 13.1564 39.3529 13.0456 39.2693 12.9761C39.1856 12.9067 39.0428 12.6869 38.952 12.4878C38.8611 12.2887 38.7358 12.0582 38.6735 11.9755C38.6111 11.8928 38.4563 11.5772 38.3294 11.274C38.2024 10.9709 38.0393 10.5876 37.9667 10.4222C37.8942 10.2569 37.8114 10.0088 37.7827 9.87103C37.6871 9.41266 37.5025 8.72444 37.3392 8.21751C37.2132 7.82628 37.1768 7.26608 37.1728 5.66206C37.1676 3.58309 37.2935 2.47475 37.6752 1.23922C37.7541 0.98379 37.8187 0.706936 37.8187 0.623984C37.8187 0.541032 37.9083 0.366702 38.0177 0.236582L38.2167 0L38.8885 0.735527C39.4826 1.38585 41.8029 3.35715 41.9743 3.35715C42.0102 3.35715 42.228 3.48177 42.4583 3.63409C42.8976 3.92465 43.9003 4.43371 44.5798 4.71114C46.5755 5.52595 49.3527 5.87895 52.0833 5.66489C52.9145 5.59973 53.8965 5.48225 54.2655 5.40381C54.6344 5.32538 55.1038 5.26121 55.3084 5.26121C55.5131 5.26121 55.9098 5.19727 56.1901 5.11912C56.4704 5.04098 56.9702 4.92537 57.3007 4.86222C57.6313 4.79906 58.2398 4.67932 58.6529 4.59612C59.9958 4.32573 60.7933 4.17667 61.5076 4.06254C61.8933 4.00093 62.4342 3.90139 62.7096 3.84135C63.2613 3.72108 64.5403 3.60458 66.4825 3.49768C67.9051 3.41937 70.649 3.6 71.3739 3.81967C71.6218 3.8948 71.9659 3.95675 72.1386 3.95735C72.4352 3.95837 72.9457 4.0885 73.9781 4.42626C74.226 4.50736 74.5416 4.59651 74.6793 4.62437C74.817 4.65223 75.0198 4.71431 75.13 4.76232C75.2402 4.81033 75.5783 4.94538 75.8813 5.06242C76.7292 5.38998 78.4275 6.25063 79.1239 6.70575C79.4685 6.93093 79.8223 7.16026 79.9101 7.21537C81.1821 8.01372 82.1954 8.89945 83.3995 10.2657C83.8095 10.7308 84.2125 11.1837 84.2951 11.2722C84.3777 11.3606 84.5355 11.5608 84.6457 11.7169C84.7558 11.873 84.9465 12.1245 85.0694 12.2759C85.406 12.6903 86.7992 15.0616 86.7992 15.22C86.7992 15.4654 87.0343 15.5572 87.8008 15.611C88.9684 15.693 90.5094 15.8828 91.0061 16.0059C91.254 16.0673 91.6597 16.1338 91.9076 16.1537C92.1555 16.1736 92.595 16.2563 92.8842 16.3375C93.1734 16.4187 93.6467 16.5502 93.9359 16.6298C94.9592 16.9113 96.8705 17.5092 97.2163 17.6559C97.4091 17.7377 97.7149 17.8685 97.8958 17.9466C98.0767 18.0247 98.2708 18.0885 98.327 18.0885C98.4631 18.0885 99.1363 18.3935 100.459 19.054C101.585 19.6166 102.675 20.331 102.675 20.5062C102.675 20.6556 102.178 20.8946 100.722 21.4443C100.474 21.5379 100.136 21.6743 99.9708 21.7475C99.8056 21.8206 99.5577 21.9025 99.4199 21.9294C99.2822 21.9563 98.854 22.0943 98.4684 22.236C98.0827 22.3777 97.6418 22.4947 97.4886 22.4958C97.3353 22.497 97.0648 22.5576 96.8876 22.6306C96.7103 22.7035 96.1145 22.8652 95.5636 22.9898C94.3418 23.2662 93.521 23.4669 92.8592 23.651C92.5837 23.7276 92.1849 23.813 91.9728 23.8409C91.7608 23.8687 91.4228 23.9767 91.2216 24.0807C90.9343 24.2293 90.8491 24.338 90.8244 24.5876C90.7943 24.8917 90.7836 24.8989 90.5767 24.7539C90.1613 24.4628 89.8921 24.5416 87.9122 25.5338C86.7883 26.0971 86.5749 26.2502 85.6483 27.1579C84.6767 28.1096 84.1803 28.7602 83.6843 29.7322C83.3279 30.4305 82.6924 32.3263 82.6924 32.6911C82.6924 32.8761 82.6233 33.1329 82.5389 33.2619C82.4168 33.4484 82.3839 33.8479 82.3785 35.2125C82.3723 36.7991 82.3396 37.0434 82.1582 36.8619ZM69.2794 23.3419C68.6177 23.101 68.1549 22.7577 67.7139 22.1805C67.168 21.4661 67.0668 21.1823 67.0668 20.3657C67.0668 19.3166 67.3113 18.6616 67.9682 17.9512C68.9726 16.8649 70.2428 16.505 71.3543 16.9917C72.1671 17.3475 72.252 17.4029 72.7865 17.9266C73.5137 18.639 73.673 19.0364 73.6745 20.1429C73.6756 20.965 73.6489 21.0917 73.3721 21.5746C73.0067 22.2121 72.1258 23.0869 71.7764 23.1593C71.6376 23.188 71.434 23.2614 71.3238 23.3223C70.9845 23.5098 69.7727 23.5214 69.2794 23.3419Z" fill="black"/>
</svg>
